{"accessors":[{"bufferView":2,"componentType":5126,"count":18,"max":[-0.2520650029182434,-1.1238130331039429,15.604718208312988],"min":[-0.761909008026123,-1.3908090591430664,15.258706092834473],"type":"VEC3"},{"bufferView":2,"byteOffset":216,"componentType":5126,"count":18,"max":[0.07912402600049973,-0.39320605993270874,-0.12247201800346375],"min":[-0.9112571477890015,-0.9716379046440125,-0.4526159465312958],"type":"VEC3"},{"bufferView":1,"componentType":5126,"count":18,"max":[0.8561810255050659,0.7326120138168335],"min":[-0.0730770006775856,0.2141599953174591],"type":"VEC2"},{"bufferView":0,"componentType":5125,"count":66,"type":"SCALAR"},{"bufferView":2,"byteOffset":432,"componentType":5126,"count":131,"max":[1.1956590414047241,2.2571940422058105,17.481081008911133],"min":[-4.018074035644531,-1.4082139730453491,14.18781852722168],"type":"VEC3"},{"bufferView":2,"byteOffset":2004,"componentType":5126,"count":131,"max":[0.9971662163734436,0.9925901293754578,0.9998937845230103],"min":[-0.996760904788971,-0.9937809705734253,-0.9806047677993774],"type":"VEC3"},{"bufferView":1,"byteOffset":144,"componentType":5126,"count":131,"max":[0.9989920258522034,0.9933620095252991],"min":[0.0027840000111609697,0.024480000138282776],"type":"VEC2"},{"bufferView":0,"byteOffset":264,"componentType":5125,"count":705,"type":"SCALAR"},{"bufferView":2,"byteOffset":3576,"componentType":5126,"count":18,"max":[0.64342200756073,-1.123378038406372,15.601594924926758],"min":[0.1335339993238449,-1.3903820514678955,15.25562572479248],"type":"VEC3"},{"bufferView":2,"byteOffset":3792,"componentType":5126,"count":18,"max":[0.911245584487915,-0.39318782091140747,-0.12261693924665451],"min":[-0.07916699349880219,-0.9716353416442871,-0.4526251256465912],"type":"VEC3"},{"bufferView":1,"byteOffset":1192,"componentType":5126,"count":18,"max":[1.004233956336975,0.7326120138168335],"min":[0.07497700303792953,0.2141599953174591],"type":"VEC2"},{"bufferView":0,"byteOffset":3084,"componentType":5125,"count":66,"type":"SCALAR"},{"bufferView":2,"byteOffset":4008,"componentType":5126,"count":664,"max":[3.999998092651367,4.442039966583252,8.765440940856934],"min":[1.8638629913330078,1.1764910221099854,5.471581935882568],"type":"VEC3"},{"bufferView":2,"byteOffset":11976,"componentType":5126,"count":664,"max":[0.9984142184257507,0.9928507804870605,0.9613737463951111],"min":[-0.9841481447219849,-0.9988917708396912,-0.9962641000747681],"type":"VEC3"},{"bufferView":1,"byteOffset":1336,"componentType":5126,"count":664,"max":[1.9916739463806152,0.9894030094146729],"min":[1.009544014930725,0.005235999822616577],"type":"VEC2"},{"bufferView":0,"byteOffset":3348,"componentType":5125,"count":1272,"type":"SCALAR"},{"bufferView":2,"byteOffset":19944,"componentType":5126,"count":1186,"max":[2.755708932876587,2.9300360679626465,14.625279426574707],"min":[-4.180983066558838,-2.0887370109558105,4.336050033569336],"type":"VEC3"},{"bufferView":2,"byteOffset":34176,"componentType":5126,"count":1186,"max":[0.9995097517967224,0.9931217432022095,0.996682345867157],"min":[-0.9999845027923584,-0.9999312162399292,-0.9977831244468689],"type":"VEC3"},{"bufferView":1,"byteOffset":6648,"componentType":5126,"count":1186,"max":[0.9999110102653503,0.9976109862327576],"min":[-0.9880769848823547,0.011713000014424324],"type":"VEC2"},{"bufferView":0,"byteOffset":8436,"componentType":5125,"count":4884,"type":"SCALAR"},{"bufferView":2,"byteOffset":48408,"componentType":5126,"count":198,"max":[7.58352518081665,2.4240589141845703,7.137554168701172],"min":[3.2695679664611816,-3.8584210872650146,1.9967939853668213],"type":"VEC3"},{"bufferView":2,"byteOffset":50784,"componentType":5126,"count":198,"max":[0.9322063326835632,0.9732417464256287,0.980064868927002],"min":[-0.9393532276153564,-0.902458131313324,-0.8200380206108093],"type":"VEC3"},{"bufferView":1,"byteOffset":16136,"componentType":5126,"count":198,"max":[1.0210720300674438,0.9992070198059082],"min":[-0.09876000136137009,0.00787500012665987],"type":"VEC2"},{"bufferView":0,"byteOffset":27972,"componentType":5125,"count":492,"type":"SCALAR"},{"bufferView":2,"byteOffset":53160,"componentType":5126,"count":3227,"max":[3.8960330486297607,3.8989179134368896,16.833742141723633],"min":[-4.50446891784668,-4.230306148529053,0.00010900000052060932],"type":"VEC3"},{"bufferView":2,"byteOffset":91884,"componentType":5126,"count":3227,"max":[0.9997273683547974,0.9998691082000732,0.9997972249984741],"min":[-0.9992875456809998,-0.9998974800109863,-0.9988120198249817],"type":"VEC3"},{"bufferView":1,"byteOffset":17720,"componentType":5126,"count":3227,"max":[7.302627086639404,0.995576024055481],"min":[0.0016959999920800328,0.0011620000004768372],"type":"VEC2"},{"bufferView":0,"byteOffset":29940,"componentType":5125,"count":9015,"type":"SCALAR"},{"bufferView":2,"byteOffset":130608,"componentType":5126,"count":765,"max":[1.2376090288162231,2.2460179328918457,14.666101455688477],"min":[-3.315505027770996,0.05462000146508217,6.251382827758789],"type":"VEC3"},{"bufferView":2,"byteOffset":139788,"componentType":5126,"count":765,"max":[0.955686092376709,0.9979461431503296,0.9996127486228943],"min":[-0.9569847583770752,-0.997891902923584,-0.997759222984314],"type":"VEC3"},{"bufferView":1,"byteOffset":43536,"componentType":5126,"count":765,"max":[2.9959208965301514,0.9960430264472961],"min":[2.005419969558716,0.006771000102162361],"type":"VEC2"},{"bufferView":0,"byteOffset":66000,"componentType":5125,"count":1800,"type":"SCALAR"},{"bufferView":2,"byteOffset":148968,"componentType":5126,"count":694,"max":[1.4327269792556763,0.4982230067253113,16.240562438964844],"min":[-1.5536099672317505,-1.7182899713516235,13.839888572692871],"type":"VEC3"},{"bufferView":2,"byteOffset":157296,"componentType":5126,"count":694,"max":[0.9843937754631042,0.9999269843101501,0.9918181300163269],"min":[-0.9836525321006775,-0.9966818690299988,-0.9934815168380737],"type":"VEC3"},{"bufferView":1,"byteOffset":49656,"componentType":5126,"count":694,"max":[0.9762910008430481,0.99024897813797],"min":[0.0021279999054968357,-0.9637079834938049],"type":"VEC2"},{"bufferView":0,"byteOffset":73200,"componentType":5125,"count":2970,"type":"SCALAR"},{"bufferView":2,"byteOffset":165624,"componentType":5126,"count":194,"max":[2.578372001647949,2.6537210941314697,12.725606918334961],"min":[-3.9062159061431885,-1.9333250522613525,7.0475568771362305],"type":"VEC3"},{"bufferView":2,"byteOffset":167952,"componentType":5126,"count":194,"max":[0.9835541248321533,0.9967970252037048,0.9104632139205933],"min":[-0.9913663864135742,-0.9888971447944641,-0.9909989833831787],"type":"VEC3"},{"bufferView":1,"byteOffset":55208,"componentType":5126,"count":194,"max":[10.617104530334473,5.866147041320801],"min":[0,-0.9426360130310059],"type":"VEC2"},{"bufferView":0,"byteOffset":85080,"componentType":5125,"count":444,"type":"SCALAR"}],"asset":{"extras":{"author":"klk mn (https://sketchfab.com/oscar3dmodel)","license":"CC-BY-4.0 (http://creativecommons.org/licenses/by/4.0/)","source":"https://sketchfab.com/3d-models/link-8cb070867a0d4b0c89008debf8a0203c","title":"Link"},"generator":"Sketchfab-15.85.0","version":"2.0"},"bufferViews":[{"buffer":0,"byteLength":86856,"name":"floatBufferViews","target":34963},{"buffer":0,"byteLength":56760,"byteOffset":86856,"byteStride":8,"name":"floatBufferViews","target":34962},{"buffer":0,"byteLength":170280,"byteOffset":143616,"byteStride":12,"name":"floatBufferViews","target":34962}],"buffers":[{"byteLength":313896,"uri":"data:application/octet-stream;base64,"}],"images":[{"uri":"data:application/octet-stream;base64,"},{"uri":"data:application/octet-stream;base64,"},{"uri":"data:application/octet-stream;base64,"},{"uri":"data:application/octet-stream;base64,"},{"uri":"data:application/octet-stream;base64,"},{"uri":"data:application/octet-stream;base64,"},{"uri":"data:application/octet-stream;base64,"},{"uri":"data:application/octet-stream;base64,"},{"uri":"data:application/octet-stream;base64,"}],"materials":[{"doubleSided":true,"name":"mat1","pbrMetallicRoughness":{"baseColorTexture":{"index":0},"metallicFactor":0,"roughnessFactor":0.6}},{"doubleSided":true,"name":"mat10","pbrMetallicRoughness":{"baseColorTexture":{"index":1},"metallicFactor":0,"roughnessFactor":0.6}},{"doubleSided":true,"name":"mat2","pbrMetallicRoughness":{"baseColorTexture":{"index":2},"metallicFactor":0,"roughnessFactor":0.6}},{"doubleSided":true,"name":"mat3","pbrMetallicRoughness":{"baseColorTexture":{"index":3},"metallicFactor":0,"roughnessFactor":0.6}},{"doubleSided":true,"name":"mat4","pbrMetallicRoughness":{"baseColorTexture":{"index":4},"metallicFactor":0,"roughnessFactor":0.6}},{"doubleSided":true,"name":"mat5","pbrMetallicRoughness":{"baseColorTexture":{"index":5},"metallicFactor":0,"roughnessFactor":0.6}},{"doubleSided":true,"name":"mat6","pbrMetallicRoughness":{"baseColorTexture":{"index":5},"metallicFactor":0,"roughnessFactor":0.6}},{"doubleSided":true,"name":"mat7","pbrMetallicRoughness":{"baseColorTexture":{"index":6},"metallicFactor":0,"roughnessFactor":0.6}},{"doubleSided":true,"name":"mat8","pbrMetallicRoughness":{"baseColorTexture":{"index":7},"metallicFactor":0,"roughnessFactor":0.6}},{"doubleSided":true,"name":"mat9","pbrMetallicRoughness":{"baseColorTexture":{"index":8},"metallicFactor":0,"roughnessFactor":0.6}}],"meshes":[{"name":"Object_0","primitives":[{"attributes":{"NORMAL":1,"POSITION":0,"TEXCOORD_0":2},"indices":3,"material":6,"mode":4}]},{"name":"Object_1","primitives":[{"attributes":{"NORMAL":5,"POSITION":4,"TEXCOORD_0":6},"indices":7,"material":4,"mode":4}]},{"name":"Object_2","primitives":[{"attributes":{"NORMAL":9,"POSITION":8,"TEXCOORD_0":10},"indices":11,"material":5,"mode":4}]},{"name":"Object_3","primitives":[{"attributes":{"NORMAL":13,"POSITION":12,"TEXCOORD_0":14},"indices":15,"material":8,"mode":4}]},{"name":"Object_4","primitives":[{"attributes":{"NORMAL":17,"POSITION":16,"TEXCOORD_0":18},"indices":19,"material":2,"mode":4}]},{"name":"Object_5","primitives":[{"attributes":{"NORMAL":21,"POSITION":20,"TEXCOORD_0":22},"indices":23,"material":0,"mode":4}]},{"name":"Object_6","primitives":[{"attributes":{"NORMAL":25,"POSITION":24,"TEXCOORD_0":26},"indices":27,"material":3,"mode":4}]},{"name":"Object_7","primitives":[{"attributes":{"NORMAL":29,"POSITION":28,"TEXCOORD_0":30},"indices":31,"material":1,"mode":4}]},{"name":"Object_8","primitives":[{"attributes":{"NORMAL":33,"POSITION":32,"TEXCOORD_0":34},"indices":35,"material":7,"mode":4}]},{"name":"Object_9","primitives":[{"attributes":{"NORMAL":37,"POSITION":36,"TEXCOORD_0":38},"indices":39,"material":9,"mode":4}]}],"nodes":[{"children":[1],"matrix":[1,0,0,0,0,2.220446049250313e-16,-1,0,0,1,2.220446049250313e-16,0,0,0,0,1],"name":"Sketchfab_model"},{"children":[2,3,4,5,6,7,8,9,10,11],"name":"DolLinkR1.obj.cleaner.materialmerger.gles"},{"mesh":0,"name":"Object_2"},{"mesh":1,"name":"Object_3"},{"mesh":2,"name":"Object_4"},{"mesh":3,"name":"Object_5"},{"mesh":4,"name":"Object_6"},{"mesh":5,"name":"Object_7"},{"mesh":6,"name":"Object_8"},{"mesh":7,"name":"Object_9"},{"mesh":8,"name":"Object_10"},{"mesh":9,"name":"Object_11"}],"samplers":[{"magFilter":9729,"minFilter":9987,"wrapS":10497,"wrapT":10497}],"scene":0,"scenes":[{"name":"Sketchfab_Scene","nodes":[0]}],"textures":[{"sampler":0,"source":0},{"sampler":0,"source":1},{"sampler":0,"source":2},{"sampler":0,"source":3},{"sampler":0,"source":4},{"sampler":0,"source":5},{"sampler":0,"source":6},{"sampler":0,"source":7},{"sampler":0,"source":8}]}